<svg xmlns="http://www.w3.org/2000/svg" version="1.1" xmlns:xlink="http://www.w3.org/1999/xlink" xmlns:svgjs="http://svgjs.dev/svgjs" width="2000" height="4490" viewBox="0 0 2000 4490"><g transform="matrix(1,0,0,1,-2.6793626008033016,1.817813765182109)"><svg viewBox="0 0 110 247" data-background-color="#f7d65a" preserveAspectRatio="xMidYMid meet" height="4490" width="2000" xmlns="http://www.w3.org/2000/svg" xmlns:xlink="http://www.w3.org/1999/xlink"><g id="tight-bounds" transform="matrix(1,0,0,1,0.14736494304418102,-0.09999999999999432)"><svg viewBox="0 0 109.7052701139117 247.2" height="247.2" width="109.7052701139117"><g><svg viewBox="0 0 121.23308554155491 273.17574365164467" height="247.2" width="109.7052701139117"><g><svg viewBox="0 0 121.23308554155491 273.17574365164467" height="273.17574365164467" width="121.23308554155491"><g id="textblocktransform"><svg viewBox="0 0 121.23308554155491 273.17574365164467" height="273.17574365164467" width="121.23308554155491" id="textblock"><g><svg viewBox="0 0 121.23308554155491 245.672304" height="245.672304" width="121.23308554155491"><rect width="121.23308554155491" height="245.672304" x="0" y="0" opacity="1" fill="#000000" data-fill-palette-color="tertiary"></rect><g transform="matrix(1,0,0,1,23.461705032,23.461705032)"><svg width="74.3096754775549" viewBox="1.5 -33.7 12.6 33.7" height="198.748893936" data-palette-color="#f7d65a"><path d="M14.1-33.7L14.1-8.65Q14.1 0 6.25 0L6.25 0Q3.45 0 1.5-1.1L1.5-1.1 1.5-5Q3.5-3.7 5.7-3.7L5.7-3.7Q10.05-3.7 10.05-8.3L10.05-8.3 10.05-33.7 14.1-33.7Z" opacity="1" transform="matrix(1,0,0,1,0,0)" fill="#f7d65a" class="wordmark-text-0" data-fill-palette-color="quaternary" id="text-0"></path></svg></g></svg></g><g transform="matrix(1,0,0,1,0,257.403156516)"><svg viewBox="0 0 121.23308554155491 15.77258713564464" height="15.77258713564464" width="121.23308554155491"><g transform="matrix(1,0,0,1,0,0)"><svg width="121.23308554155491" viewBox="3.5 -36.5 365.07 47.5" height="15.77258713564464" data-palette-color="#000000"><path d="M16.85 0.6L16.85 0.6Q12.95 0.6 9.93-1.03 6.9-2.65 5.2-5.68 3.5-8.7 3.5-12.85L3.5-12.85 3.5-35 8.3-35 8.3-12.55Q8.3-10.1 9.33-8.08 10.35-6.05 12.28-4.83 14.2-3.6 16.85-3.6L16.85-3.6Q19.45-3.6 21.38-4.83 23.3-6.05 24.35-8.08 25.4-10.1 25.4-12.55L25.4-12.55 25.4-35 30.2-35 30.2-12.55Q30.2-10.1 31.23-8.08 32.25-6.05 34.18-4.83 36.1-3.6 38.75-3.6L38.75-3.6Q41.35-3.6 43.28-4.83 45.2-6.05 46.23-8.08 47.25-10.1 47.25-12.55L47.25-12.55 47.25-35 52.05-35 52.05-12.85Q52.05-8.7 50.35-5.68 48.65-2.65 45.65-1.03 42.65 0.6 38.75 0.6L38.75 0.6Q36.4 0.6 34.27-0.08 32.15-0.75 30.5-2.18 28.85-3.6 27.8-5.7L27.8-5.7Q26.8-3.6 25.1-2.2 23.4-0.8 21.28-0.1 19.15 0.6 16.85 0.6ZM78.7 0L72.15 0Q67.95 0 64.7-1.58 61.45-3.15 59.62-6.03 57.8-8.9 57.8-12.75L57.8-12.75Q57.8-16.55 59.35-19.58 60.9-22.6 63.65-24.35 66.4-26.1 70.05-26.1L70.05-26.1Q74-26.1 76.62-24.4 79.25-22.7 80.55-19.83 81.85-16.95 81.85-13.4L81.85-13.4Q81.85-12.85 81.82-12.25 81.8-11.65 81.7-11.2L81.7-11.2 62.7-11.2Q62.95-8.85 64.25-7.23 65.55-5.6 67.57-4.78 69.6-3.95 72.05-3.95L72.05-3.95 78.7-3.95 78.7 0ZM62.65-14.45L62.65-14.45 77.2-14.45Q77.2-15.4 77-16.48 76.8-17.55 76.3-18.57 75.8-19.6 74.97-20.43 74.15-21.25 72.92-21.75 71.7-22.25 70.05-22.25L70.05-22.25Q68.3-22.25 66.97-21.58 65.65-20.9 64.7-19.78 63.75-18.65 63.25-17.25 62.75-15.85 62.65-14.45ZM100.6 0.6L100.6 0.6Q96.9 0.6 93.95-1 91-2.6 89.27-5.63 87.55-8.65 87.55-12.9L87.55-12.9 87.55-36.5 92.15-36.5 92.15-20.95 92.25-20.95Q93.1-22.5 94.47-23.65 95.85-24.8 97.62-25.45 99.4-26.1 101.35-26.1L101.35-26.1Q104.9-26.1 107.7-24.5 110.5-22.9 112.12-19.98 113.75-17.05 113.75-13.05L113.75-13.05Q113.75-9.9 112.77-7.38 111.8-4.85 110.05-3.05 108.3-1.25 105.9-0.33 103.5 0.6 100.6 0.6ZM100.6-3.35L100.6-3.35Q102.95-3.35 104.87-4.5 106.8-5.65 107.95-7.75 109.1-9.85 109.1-12.75L109.1-12.75Q109.1-15.55 107.97-17.65 106.85-19.75 104.95-20.95 103.05-22.15 100.65-22.15L100.65-22.15Q98.3-22.15 96.37-21 94.45-19.85 93.32-17.73 92.2-15.6 92.2-12.7L92.2-12.7Q92.2-9.85 93.32-7.75 94.45-5.65 96.37-4.5 98.3-3.35 100.6-3.35ZM144.24 0L133.04 0 133.04-35 144.24-35Q149.84-35 153.92-32.75 157.99-30.5 160.24-26.55 162.49-22.6 162.49-17.5L162.49-17.5Q162.49-12.4 160.24-8.45 157.99-4.5 153.92-2.25 149.84 0 144.24 0L144.24 0ZM137.84-30.75L137.84-4.25 144.29-4.25Q148.19-4.25 151.22-5.85 154.24-7.45 155.99-10.43 157.74-13.4 157.74-17.5L157.74-17.5Q157.74-21.65 155.99-24.6 154.24-27.55 151.22-29.15 148.19-30.75 144.29-30.75L144.29-30.75 137.84-30.75ZM187.74 0L181.19 0Q176.99 0 173.74-1.58 170.49-3.15 168.66-6.03 166.84-8.9 166.84-12.75L166.84-12.75Q166.84-16.55 168.39-19.58 169.94-22.6 172.69-24.35 175.44-26.1 179.09-26.1L179.09-26.1Q183.04-26.1 185.66-24.4 188.29-22.7 189.59-19.83 190.89-16.95 190.89-13.4L190.89-13.4Q190.89-12.85 190.86-12.25 190.84-11.65 190.74-11.2L190.74-11.2 171.74-11.2Q171.99-8.85 173.29-7.23 174.59-5.6 176.61-4.78 178.64-3.95 181.09-3.95L181.09-3.95 187.74-3.95 187.74 0ZM171.69-14.45L171.69-14.45 186.24-14.45Q186.24-15.4 186.04-16.48 185.84-17.55 185.34-18.57 184.84-19.6 184.01-20.43 183.19-21.25 181.96-21.75 180.74-22.25 179.09-22.25L179.09-22.25Q177.34-22.25 176.01-21.58 174.69-20.9 173.74-19.78 172.79-18.65 172.29-17.25 171.79-15.85 171.69-14.45ZM206.99 0.6L206.99 0.6Q205.28 0.6 203.91-0.38 202.53-1.35 201.89-3.15L201.89-3.15 193.59-25.5 198.64-25.5 206.03-4.85Q206.24-4.35 206.49-4.15 206.74-3.95 207.03-3.95L207.03-3.95Q207.39-3.95 207.61-4.15 207.84-4.35 208.03-4.85L208.03-4.85 215.49-25.5 220.44-25.5 212.14-3.15Q211.44-1.35 210.09-0.38 208.74 0.6 206.99 0.6ZM243.58 0L237.03 0Q232.83 0 229.58-1.58 226.33-3.15 224.51-6.03 222.68-8.9 222.68-12.75L222.68-12.75Q222.68-16.55 224.23-19.58 225.78-22.6 228.53-24.35 231.28-26.1 234.93-26.1L234.93-26.1Q238.88-26.1 241.51-24.4 244.13-22.7 245.43-19.83 246.73-16.95 246.73-13.4L246.73-13.4Q246.73-12.85 246.71-12.25 246.68-11.65 246.58-11.2L246.58-11.2 227.58-11.2Q227.83-8.85 229.13-7.23 230.43-5.6 232.46-4.78 234.48-3.95 236.93-3.95L236.93-3.95 243.58-3.95 243.58 0ZM227.53-14.45L227.53-14.45 242.08-14.45Q242.08-15.4 241.88-16.48 241.68-17.55 241.18-18.57 240.68-19.6 239.86-20.43 239.03-21.25 237.81-21.75 236.58-22.25 234.93-22.25L234.93-22.25Q233.18-22.25 231.86-21.58 230.53-20.9 229.58-19.78 228.63-18.65 228.13-17.25 227.63-15.85 227.53-14.45ZM257.18 0L252.58 0 252.58-36.5 257.18-36.5 257.18 0ZM276.48 0.6L276.48 0.6Q272.58 0.6 269.58-1.18 266.58-2.95 264.83-5.98 263.08-9 263.08-12.75L263.08-12.75Q263.08-16.5 264.83-19.53 266.58-22.55 269.58-24.33 272.58-26.1 276.48-26.1L276.48-26.1Q280.38-26.1 283.4-24.33 286.43-22.55 288.15-19.53 289.88-16.5 289.88-12.75L289.88-12.75Q289.88-9 288.15-5.98 286.43-2.95 283.4-1.18 280.38 0.6 276.48 0.6ZM276.48-3.35L276.48-3.35Q279.13-3.35 281.08-4.6 283.03-5.85 284.13-7.98 285.23-10.1 285.23-12.75L285.23-12.75Q285.23-15.4 284.13-17.53 283.03-19.65 281.08-20.9 279.13-22.15 276.48-22.15L276.48-22.15Q273.88-22.15 271.9-20.9 269.93-19.65 268.83-17.53 267.73-15.4 267.73-12.75L267.73-12.75Q267.73-10.1 268.83-7.98 269.93-5.85 271.9-4.6 273.88-3.35 276.48-3.35ZM308.68-26.1L308.68-26.1Q304.98-26.1 302.02-24.5 299.07-22.9 297.35-19.88 295.63-16.85 295.63-12.6L295.63-12.6 295.63 11 300.23 11 300.23-4.55 300.32-4.55Q301.18-3 302.55-1.85 303.93-0.7 305.7-0.05 307.48 0.6 309.43 0.6L309.43 0.6Q312.98 0.6 315.77-1 318.57-2.6 320.2-5.53 321.82-8.45 321.82-12.45L321.82-12.45Q321.82-15.6 320.85-18.13 319.88-20.65 318.13-22.45 316.38-24.25 313.98-25.18 311.57-26.1 308.68-26.1ZM308.68-22.15L308.68-22.15Q311.02-22.15 312.95-21 314.88-19.85 316.02-17.75 317.18-15.65 317.18-12.75L317.18-12.75Q317.18-9.95 316.05-7.85 314.93-5.75 313.02-4.55 311.13-3.35 308.73-3.35L308.73-3.35Q306.38-3.35 304.45-4.5 302.52-5.65 301.4-7.78 300.27-9.9 300.27-12.8L300.27-12.8Q300.27-15.65 301.4-17.75 302.52-19.85 304.45-21 306.38-22.15 308.68-22.15ZM347.22 0L340.67 0Q336.47 0 333.22-1.58 329.97-3.15 328.15-6.03 326.32-8.9 326.32-12.75L326.32-12.75Q326.32-16.55 327.87-19.58 329.42-22.6 332.17-24.35 334.92-26.1 338.57-26.1L338.57-26.1Q342.52-26.1 345.15-24.4 347.77-22.7 349.07-19.83 350.37-16.95 350.37-13.4L350.37-13.4Q350.37-12.85 350.35-12.25 350.32-11.65 350.22-11.2L350.22-11.2 331.22-11.2Q331.47-8.85 332.77-7.23 334.07-5.6 336.1-4.78 338.12-3.95 340.57-3.95L340.57-3.95 347.22-3.95 347.22 0ZM331.17-14.45L331.17-14.45 345.72-14.45Q345.72-15.4 345.52-16.48 345.32-17.55 344.82-18.57 344.32-19.6 343.5-20.43 342.67-21.25 341.45-21.75 340.22-22.25 338.57-22.25L338.57-22.25Q336.82-22.25 335.5-21.58 334.17-20.9 333.22-19.78 332.27-18.65 331.77-17.25 331.27-15.85 331.17-14.45ZM360.67 0L356.07 0 356.07-18.25Q356.07-21.65 358-23.58 359.92-25.5 363.32-25.5L363.32-25.5 368.57-25.5 368.57-21.55 364.17-21.55Q362.52-21.55 361.59-20.6 360.67-19.65 360.67-17.95L360.67-17.95 360.67 0Z" opacity="1" transform="matrix(1,0,0,1,0,0)" fill="#000000" class="slogan-text-1" data-fill-palette-color="secondary" id="text-1"></path></svg></g></svg></g></svg></g></svg></g></svg></g><defs></defs></svg><rect width="109.7052701139117" height="247.2" fill="none" stroke="none" visibility="hidden"></rect></g></svg></g></svg>